/* XPM */
static char *_f5b2131ebab460aaf6f9ec0c25bf314uIoVsh9oJ5Asr4qI[] = {
/* columns rows colors chars-per-pixel */
"32 32 104 2 ",
"   c black",
".  c gray19",
"X  c #7B5B28",
"o  c #505050",
"O  c gray44",
"+  c #805F2A",
"@  c #8D6926",
"#  c #84662D",
"$  c #947336",
"%  c #9B7832",
"&  c #92743E",
"*  c #9B7A3A",
"=  c #A17F3F",
"-  c #967B4A",
";  c #A28035",
":  c #A4833D",
">  c #A58545",
",  c #AC8B43",
"<  c #A68749",
"1  c #AD8D48",
"2  c #B3934D",
"3  c #A98B55",
"4  c #AF9258",
"5  c #B39553",
"6  c #BB9C55",
"7  c #B5995C",
"8  c #B99B5A",
"9  c #BEA05D",
"0  c #AC9464",
"q  c #B99D60",
"w  c #BDA166",
"e  c #BCA36F",
"r  c #C0A15B",
"t  c #C3A662",
"y  c #C6A965",
"u  c #C3A869",
"i  c #C9AE6E",
"p  c #C6AC74",
"a  c #CAAE70",
"s  c #D7BB7B",
"d  c #6D7F82",
"f  c #748486",
"g  c #7A8687",
"h  c #758789",
"j  c #798789",
"k  c #758A8C",
"l  c #7B8B8D",
"z  c #758E91",
"x  c #7D8E91",
"c  c #779092",
"v  c #7D9294",
"b  c #7F9598",
"n  c #818D8E",
"m  c #818F91",
"M  c #839395",
"N  c #899596",
"B  c #849698",
"V  c #899799",
"C  c #859A9C",
"Z  c #8B9C9D",
"A  c #909090",
"S  c #909D9F",
"D  c #D9C291",
"F  c #A9BFC2",
"G  c #ADC3C5",
"H  c #AEC9CC",
"J  c #B3C4C6",
"K  c #B2C7CA",
"L  c #B5CACC",
"P  c #BBCCCE",
"I  c #B4CED0",
"U  c #BBCED1",
"Y  c #B6D1D4",
"T  c #BCD1D4",
"R  c #BDD4D6",
"E  c #BED4D6",
"W  c #B8D4D8",
"Q  c #BED5D8",
"!  c #BCD8D9",
"~  c #BFD9DC",
"^  c #C0CACB",
"/  c #C2CCCE",
"(  c #C2CECF",
")  c #C1CFD1",
"_  c #C3D0D1",
"`  c #C5D1D3",
"'  c #C3D3D5",
"]  c #C4D2D4",
"[  c #C1D4D6",
"{  c #C4D4D6",
"}  c #C8D2D4",
"|  c #C2D6D8",
" . c #C5D6D8",
".. c #C8D6D9",
"X. c #C1D8DA",
"o. c #C5D8D9",
"O. c #C3DADD",
"+. c #C8D8DA",
"@. c #CCD9DB",
"#. c #C9D9DC",
"$. c #D1DBDC",
"%. c #D4DEDF",
"&. c #C7DEE0",
"*. c #CEDEE0",
/* pixels */
"5 2 6 G l 2 , ; % * y { x 6 % , < 7 X o.M q D > + $ * $.z e < @ ",
"E K E T T ' E L E L L P ' o.U P U W  .P E L T U %. .L P P L P | ",
"B x M Y n m g l M l l T m l m M M M k  .M v j x h Z M Q m v h B ",
"%     P l             P j             P B             U l   6 : ",
":     K n         o . T h . o o o o . T B o o o . o o _ B   % # ",
"E T X.K L U E ' E L  .@.G L U o.X.L ' ` #.U U L P T T P E L P U ",
"M M l T x B M x B B l H v l N M l j l ' l B x k M M h _ v l B B ",
"  A A T j O O o o     T M     o o o o G l o o . o o o Y l     < ",
"  A A O.l O o o o O O T x         o o L k o o . o o o W M     7 ",
"o.T L [ P Y ] P | L ) | L U ) _ ' Y T P L J [ | #.F U L Q ~ | T ",
"l b m E M l m B Z M x Y M x v j v n Z ' b h x l l l m E v x x l ",
"4   A ' j O O o o A O P M o o o O O O ! M o       . . ( C .     ",
"7   A U M O O O o A O ) v O o o A O O _ v o o       . U v       ",
"*._ T K K _ P { I T U Y T ..' E _ .._ I P _ U I T K J ^ I U G L ",
"l m n _ c M x M j l x I x M m B l l v U M j M f m Z k U x v h M ",
"=   A ..v A O o o A A U x o o o A O O Y d o o o O O o Q B     , ",
"    A T x O O o o A A E C o o o A O O } l o o O o O o T m     * ",
" .P J ` o.U E T T U T _ P { E  .E L P K  . .O.Y Q [ K E U Q U [ ",
"M l M P v m M m x l l G N n h n m x x Q l f v l B l v o.j z n l ",
":   A H l O O o o A A _ M O o o O O O E V o o O O O o K M     1 ",
"2   A ( v O O o o A A ' V o o o O A O E M o o O O O o K h     , ",
") ' [ T W E P [ W L L _ | P K J { E T W U U E _ ) o.E o.Y U _ T ",
"j j h X.B x j v l x f U l l x B l l v | M B f k B l V Y v v l b ",
"$   A U m O O o o O O I l o o o O O O T x o o O O O o ( n o   3 ",
"w a A L l A O o o A O J B o o o A O O T l o o O O o o L v o   7 ",
" .o.{ P T [ Y [ ) _ P E I H U U ] _ P E Y o.Y T ` J P L E P T ] ",
"x j k K x l h Z j M b &.x M j f B C v L x v l M v B B U B M M m ",
"r   A Y l O O o o A A X.V O o o O O O L l o o O O O o T M o   u ",
"2     L B A O o o O A Y m O o o O O O U n o o O O o o E x o   & ",
"U P U E L O.P L T Y +.U ..' _ U T P Y { Q O.L Q P ' K T _ E T K ",
"l v j ] m x M Z C x v ' v V B v C l b P l b l l M j C T M v M v ",
"p 5 , J l : 8 5 < t 2 Y l i > 8 y : 7 U S - 0 < 8 s r [ n 6 : 9 "
};
