/* XPM */
static char *f7e2576c22f2400ab94cd8be1308c8f7k0pmPw6qut5aWR0Z[] = {
/* columns rows colors chars-per-pixel */
"32 32 132 2 ",
"   c #7F5A20",
".  c #7C5D2C",
"X  c #7A5D32",
"o  c #815F21",
"O  c #805F2B",
"+  c #846124",
"@  c #8D6924",
"#  c #84662D",
"$  c #87682D",
"%  c #8C692B",
"&  c #926E26",
"*  c #916E2C",
"=  c #95722C",
"-  c #99752C",
";  c #9A782E",
":  c #876734",
">  c #856832",
",  c #8D6C33",
"<  c #856A3C",
"1  c #8D6E3A",
"2  c #916F31",
"3  c #8F7036",
"4  c #947232",
"5  c #997633",
"6  c #9D7B33",
"7  c #94753A",
"8  c #987738",
"9  c #97783A",
"0  c #9D7D3C",
"q  c #A17E35",
"w  c #A17F3B",
"e  c #886D40",
"r  c #826F4E",
"t  c #8D7243",
"y  c #8D7348",
"u  c #927643",
"i  c #977A45",
"p  c #9B7C42",
"a  c #967C4B",
"s  c #9B7E49",
"d  c #9E803E",
"f  c #A38035",
"g  c #A3823C",
"h  c #A8863D",
"j  c #AA893E",
"k  c #9E8145",
"l  c #9E824C",
"z  c #9F8658",
"x  c #A48443",
"c  c #A88741",
"v  c #A78846",
"b  c #AB8A44",
"n  c #A4864B",
"m  c #A88749",
"M  c #A7894A",
"N  c #AC8D4A",
"B  c #B08F47",
"V  c #B08F4A",
"C  c #AF904B",
"Z  c #B29147",
"A  c #B3934C",
"S  c #B9974D",
"D  c #A58A53",
"F  c #AA8D53",
"G  c #A78E5B",
"H  c #AB8F58",
"J  c #AD9154",
"K  c #AD925C",
"L  c #B49552",
"P  c #B79855",
"I  c #BA9B55",
"U  c #B2965A",
"Y  c #B6995C",
"T  c #BB9D5B",
"R  c #BEA15D",
"E  c #AD9363",
"W  c #B19660",
"Q  c #B59B65",
"!  c #B99D61",
"~  c #B79E6E",
"^  c #B99F69",
"/  c #BDA164",
"(  c #BDA46C",
")  c #BFA773",
"_  c #BCA67C",
"`  c #C0A156",
"'  c #C1A15D",
"]  c #C3A45F",
"[  c #C4A55F",
"{  c #C1A460",
"}  c #C5A763",
"|  c #C0A364",
" . c #C0A467",
".. c #C4A666",
"X. c #C7A961",
"o. c #C6A967",
"O. c #C9AB67",
"+. c #C3A569",
"@. c #C1A66B",
"#. c #C5A968",
"$. c #C7AB6E",
"%. c #C7AC6F",
"&. c #C8AC6A",
"*. c #CDAF6A",
"=. c #C9AD6C",
"-. c #C8AD6E",
";. c #CDB16E",
":. c #C4AA70",
">. c #C7AD72",
",. c #C3AA74",
"<. c #C9AE73",
"1. c #CFB473",
"2. c #CAB074",
"3. c #CCB174",
"4. c #CEB375",
"5. c #CEB377",
"6. c #CBB27A",
"7. c #CEB578",
"8. c #D0B372",
"9. c #D1B474",
"0. c #D1B77B",
"q. c #D3BA7D",
"w. c #C5B181",
"e. c #D6BE85",
"r. c #D6BE8C",
"t. c #D8BF89",
"y. c #DBC285",
"u. c #D9C28D",
"i. c #D7C394",
"p. c #D9C291",
"a. c #DECD9A",
"s. c #E3CC94",
/* pixels */
"P A I *.- A b f 5 0 X.] P P 5 b b P . $ u ! p.x O 7 0 J 9 ( v @ ",
"P X.[ 9.; Y L R ! $.9.O.P } N I N b x P 5.;.#.q N { A P c T b P ",
"N b J H b P ! %.0 9 +.N c J 0 n l 2.T T P T A h J J P 5.Y I I h ",
"5 c M D $.B L w = g #.0 * 0 c  .J R U F p l + 5 J d 6 x 1 P I g ",
"g I k Q P 0 x 6 ] c T g / 1.&.-.T / J 1 Q Q V } T c Z } | 5.5 # ",
">.' 0 :.v 8 b +. .< ,./ A Z f 7 v x M H L Y P 8.{ q 6 ' L P = g ",
"Y * L / N n !  .0 D 5.Y 4 b j U / c T o.A P q I Z P 7.a.! P c T ",
"= w #.P L p W 9 9 P N k k N h Z b q o.P f A 6 h f 0 a r X p 7 v ",
"c Z g c T / D N ] >.k / Q c A ;...A I g = g 0 c N b R ( Y C l Y ",
"P P A I I 6 F R N P k v f f L / D K { c w | $.L c b I I g M x c ",
"Y N A I V , ! x ! $.N c Z L :.r.( ( n g / p N T P -.y.O.L T L  .",
"K v T A 6 b J 9 / M 5 A A 5.+.p + 8 G F l . / Y w M / 0 f & g L ",
"Y g 4 5 A N g Z T v w N c N + : P Z 6 g N Y :.u 0 g >.L { h A J ",
"c 5 c ' 5.T { A s U | c g N q :.#.f g P - q P +.+.L q.I 6 % P | ",
"T A O.#.L N N M J w.D 0 / ( L R v % #.5.h A } ! < < P C * F ;.A ",
"w 4 6 4 A  .L k s E k 9 N J U F +.f I ..g P P M i F 9.;.c 5 ] b ",
"x M b #.-.T P ! $.>./ Y f b P T P N ` &.x <.T c T A I P A 3 >.8 ",
"/ w A P q ; g  .&.N L N 4 A +.k b #.P P K / b N #.0 A h v X _ K ",
"N - T 5 N R 0.R 4 6 g b p | ^ F 9.y.6 g v g f x P N = 0 i.l K l ",
"g f ;.f P 5.! 8 = % 7 ' | Y Y ) 6./ & P >.U C P I N g 5.w.: T N ",
"Z P J c I 5.F F P g q.-.4 O U n s J o v e y T T L p / 9.P N &.b ",
"b 5 * c { u.K U M P 5.Y + D t.U ! $.8 { R 6.A ] F u T  .N g ] S ",
"R k  .T R c % m w Z P L 6 / ( x { B 5 U Z R g -.N b o.( > s ! L ",
"4 p q.T T A j v 3 M P N b +.F g o.c N k b P 8 J Z g T g g U x F ",
"/ <.P 0 V P 6 c <.<.U b | +.- b L x 4 0 U x Y Y 8   g h T R R P ",
" .T N M L P P O.9.c x { J p * -.! F g c g L $.4 4 6 ' } L M Y A ",
"Z 5 5 L Z P A g h @ P } 0 N T 6.u g f 6 T -.#.5 P A 5.#.0 U M L ",
"`  .T P h ; c b b q A P ( $.A P 2 0 x P { L / P T A ' o.b U K #.",
"A Y A P P 6 T N q Z A ` O.c q b N L Y T ' P +.L % P 9.{ g L :.7 ",
"f f N , 5 6 &.L h A c M ' q f c J , / ..R A F Q 1  .g - Z A A 0 ",
"R b c 5 ' Z T 0 h R N P +.A q b e.| s.&.T v ~ z t -.g h j j 6 b ",
">.L b B 5.g Y L b { A N 6.-.c T o.g Y g O a E n T q.' M c P f R "
};
