/* XPM */
static char *f3c2df8eac6c4601e53837c617f99608iMBZ6UdRU2xk5sw1[] = {
/* columns rows colors chars-per-pixel */
"32 32 137 2 ",
"   c None",
".  c #6D7F82",
"X  c #748486",
"o  c #7A8687",
"O  c #758789",
"+  c #798789",
"@  c #758A8C",
"#  c #7B8B8D",
"$  c #758E91",
"%  c #7D8E91",
"&  c #779092",
"*  c #7D9294",
"=  c #7F9598",
"-  c #818D8E",
";  c #818F91",
":  c #839395",
">  c #899596",
",  c #849698",
"<  c #899799",
"1  c #859A9C",
"2  c #8B9C9D",
"3  c #909D9F",
"4  c #A9BFC2",
"5  c #ADC3C5",
"6  c #AEC9CC",
"7  c #B3C4C6",
"8  c #B2C7CA",
"9  c #B5CACC",
"0  c #BBCCCE",
"q  c #B4CED0",
"w  c #BACFD3",
"e  c #B9CED1",
"r  c #BDCDD0",
"t  c #BCCED0",
"y  c #BDCFD0",
"u  c #BCCED1",
"i  c #BDCFD1",
"p  c #BECED0",
"a  c #BFCED0",
"s  c #BFCFD0",
"d  c #BECFD2",
"f  c #BBCED1",
"g  c #B6D1D4",
"h  c #B8D0D2",
"j  c #B9D0D2",
"k  c #B8D0D3",
"l  c #BAD1D3",
"z  c #BCD0D2",
"x  c #BDD0D2",
"c  c #BCD0D3",
"v  c #BCD1D3",
"b  c #BDD1D3",
"n  c #BED0D2",
"m  c #BFD0D2",
"M  c #BFD1D3",
"N  c #BDD2D3",
"B  c #B9D0D4",
"V  c #BBD1D4",
"C  c #BBD2D4",
"Z  c #BBD2D6",
"A  c #BBD3D6",
"S  c #BCD2D4",
"D  c #BDD2D4",
"F  c #BCD3D5",
"G  c #BFD2D4",
"H  c #BED2D5",
"J  c #BFD3D5",
"K  c #BCD3D7",
"L  c #BFD3D6",
"P  c #BDD4D6",
"I  c #BED4D6",
"U  c #BFD4D7",
"Y  c #BCD2D4",
"T  c #B8D4D8",
"R  c #B8D6D9",
"E  c #BED5D8",
"W  c #BDD7D9",
"Q  c #BED6D9",
"!  c #BCD8D9",
"~  c #BFD9DC",
"^  c #C0CACB",
"/  c #C2CECF",
"(  c #C2CCCE",
")  c #C0CED0",
"_  c #C1CFD1",
"`  c #C3CFD1",
"'  c #C2CFD1",
"]  c #C3D0D1",
"[  c #C1D1D2",
"{  c #C0D1D3",
"}  c #C2D0D2",
"|  c #C2D1D2",
" . c #C2D0D3",
".. c #C3D0D3",
"X. c #C5D1D3",
"o. c #C0D2D4",
"O. c #C1D2D5",
"+. c #C1D3D5",
"@. c #C2D2D4",
"#. c #C3D2D4",
"$. c #C2D3D5",
"%. c #C3D3D5",
"&. c #C1D3D6",
"*. c #C4D2D4",
"=. c #C1D4D6",
"-. c #C1D5D6",
";. c #C4D4D6",
":. c #C4D5D7",
">. c #C3D3D4",
",. c #C8D2D4",
"<. c #C1D7D9",
"1. c #C2D6D8",
"2. c #C2D7D9",
"3. c #C1D7DA",
"4. c #C4D6D8",
"5. c #C5D6D8",
"6. c #C5D6D9",
"7. c #C4D7D9",
"8. c #C9D7D8",
"9. c #C8D6D9",
"0. c #C8D6D8",
"q. c #C3D8D9",
"w. c #C1D8DA",
"e. c #C5D8D9",
"r. c #C6D8D9",
"t. c #C5D8DA",
"y. c #C7D8DA",
"u. c #C3DADD",
"i. c #C4D9DB",
"p. c #CCD9DB",
"a. c #C9D9DC",
"s. c #C9DADC",
"d. c #C8D8DA",
"f. c #D1DBDC",
"g. c #D4DEDF",
"h. c #C7DEE0",
"j. c #CEDEE0",
/* pixels */
"      5 #             ;.%             e.:             f.$       ",
"J 8 P v v %.J 9 J 9 9 0 %.e.e 0 e T 5.0 J 9 v y g.5.9 0 0 9 0 1.",
", % : h - ; o # : # # v ; # ; : : : @ 5.: * + % O 2 : E ; * O , ",
"      0 #             0 +             0 ,             y #       ",
"      8 -             C O             v ,             ] ,       ",
"J v w.8 9 y J %.P 9 5.p.5 9 e e.w.9 %.X.a.y y 9 0 C C 0 P 9 0 y ",
": : # v % , : % , , # 6 * # > : # + # %.# , % @ : : O ] * # , , ",
"      v +             v :             5 #             h #       ",
"      u.#             C %             9 @             T :       ",
"e.v 9 =.0 h *.0 1.9 ) 1.9 e ) ] %.h v 0 9 7 =.1.a.4 y 9 E ~ 1.v ",
"# = ; P : # ; , 2 : % h : % * + * - 2 %.= O % # # # ; J * % % # ",
"      %.+             0 :             ! :             / 1       ",
"      y :             ) *             ] *             e *       ",
"j.] C 8 8 ] 0 ;.q v y h v 9.%.J ] 9.] q 0 ] e q v 8 7 ^ q y 5 9 ",
"# ; - ] & : % : + # % q % : ; , # # * e : + : X ; 2 @ e % * O : ",
"      9.*             y %             h .             E ,       ",
"      v %             J 1             ,.#             v ;       ",
"5.0 7 X.e.y J v v e C ] 0 ;.J 5.P 9 0 8 5.5.u.g E =.8 J y E y =.",
": # : 0 * ; : ; % # # 5 > - O - ; % % E # X * # , # * e.+ $ - # ",
"      6 #             ] :             J <             8 :       ",
"      / *             %.<             J :             8 O       ",
") %.=.v T P 0 =.T 9 9 ] 1.0 8 7 ;.P v T y e P ] ) e.J e.h e ] v ",
"+ + O w., % + * # % X y # # % , # # * 1.: , X @ , # < g * * # = ",
"      e ;             q #             v %             ( -       ",
"      9 #             7 ,             v #             9 *       ",
"5.e.;.0 C =.g =.) ] 0 P q 6 e e *.] 0 P h e.g C X.7 0 9 J 0 C *.",
"% + @ 8 % # O 2 + : = h.% : + X , 1 * 9 % * # : * , , y , : : ; ",
"      g #             w.<             9 #             v :       ",
"      9 ,             g ;             y -             J %       ",
"y 0 e J 9 u.0 9 v h d.y 9.%.] e C 0 h ;.E u.9 E 0 %.8 v ] J C 8 ",
"# * + *.; % : 2 1 % * %.* < , * 1 # = 0 # = # # : + 1 C : * : * ",
"      7 #             h #             y 3             =.-       "
};
