/* XPM */
static char *_6b3774d8d0946f4aedfc876a774928dewDNvYq8ytGTHAY6[] = {
/* columns rows colors chars-per-pixel */
"32 32 131 2 ",
"   c black",
".  c #68541F",
"X  c #7F5A20",
"o  c #7C5D2C",
"O  c #7A5D32",
"+  c #815F21",
"@  c #805F2B",
"#  c #846124",
"$  c #8D6924",
"%  c #84662D",
"&  c #87682D",
"*  c #8D6A2C",
"=  c #926F27",
"-  c #916F2C",
";  c #807020",
":  c #96722B",
">  c #99742B",
",  c #9A782E",
"<  c #876734",
"1  c #856832",
"2  c #8D6C33",
"3  c #856C3D",
"4  c #8D6E3A",
"5  c #916F31",
"6  c #8F7036",
"7  c #947233",
"8  c #997632",
"9  c #9D7B33",
"0  c #93753A",
"q  c #987738",
"w  c #97793B",
"e  c #9D7D3C",
"r  c #A17E35",
"t  c #A17F3B",
"y  c #826F4E",
"u  c #8D7243",
"i  c #927643",
"p  c #9C7C41",
"a  c #967C4B",
"s  c #9B7E49",
"d  c #9E803E",
"f  c #A38035",
"g  c #AA8834",
"h  c #A3823C",
"j  c #A8863D",
"k  c #AA893E",
"l  c #9E8144",
"z  c #9E834C",
"x  c #9F8658",
"c  c #A48443",
"v  c #A88741",
"b  c #A78846",
"n  c #AB8A44",
"m  c #A4864B",
"M  c #A88749",
"N  c #A7884A",
"B  c #AC8D4A",
"V  c #B08F47",
"C  c #AF904E",
"Z  c #B29147",
"A  c #B3934C",
"S  c #B9974D",
"D  c #A68A54",
"F  c #AA8D53",
"G  c #A78E5B",
"H  c #AB8F58",
"J  c #AE9153",
"K  c #AD925C",
"L  c #B39452",
"P  c #B79954",
"I  c #BA9B55",
"U  c #B2965B",
"Y  c #B6995C",
"T  c #BB9D5B",
"R  c #BEA15D",
"E  c #AC9464",
"W  c #B19660",
"Q  c #B59B65",
"!  c #BA9D61",
"~  c #B79E6E",
"^  c #B99F69",
"/  c #BEA264",
"(  c #BDA36C",
")  c #BFA773",
"_  c #BCA67C",
"`  c #C0A040",
"'  c #C1A15D",
"]  c #C3A45F",
"[  c #C4A55F",
"{  c #C1A460",
"}  c #C5A763",
"|  c #C0A364",
" . c #C0A467",
".. c #C4A666",
"X. c #C7A961",
"o. c #C6A967",
"O. c #C9AB67",
"+. c #C3A569",
"@. c #C5A968",
"#. c #C5A96E",
"$. c #C7AB6E",
"%. c #C7AC6F",
"&. c #C8AC6A",
"*. c #CDAF6A",
"=. c #C9AD6D",
"-. c #C8AD6E",
";. c #CDB16E",
":. c #C4AA70",
">. c #C7AD72",
",. c #C3AA74",
"<. c #C9AE72",
"1. c #CCB072",
"2. c #CFB473",
"3. c #CAB074",
"4. c #CEB375",
"5. c #CEB377",
"6. c #CBB27A",
"7. c #CEB578",
"8. c #D0B372",
"9. c #D1B474",
"0. c #D1B77E",
"q. c #D3BA7D",
"w. c #F2C44D",
"e. c #D6BE85",
"r. c #D6BE8C",
"t. c #D8BF89",
"y. c #DBC285",
"u. c #D9C28D",
"i. c #D9C291",
"p. c #DECD9A",
"a. c #E3CC94",
/* pixels */
"P A I *.> A n f 8 e X.] P P 8 n n P o & i ! i.c @ 0 e J w ( b $ ",
"P X.[ 9., Y L R ! $.9.O.P } B I B n c P 1.;.@.r B { A P n T n P ",
"B n J H n P ! %.e w +.B v J e N z 3.T T P T A j J J P 5.Y I I j ",
"8 v M D $.V L t : h @.e - e v  .J R U F p z # 8 J d 9 c 4 P I h ",
"h I l Q P e c 9 ] v T h / 2.&.-.T / J 4 Q Q V } T v Z } | 1.8 % ",
">.' e :.b q n +. .3 ,./ A Z f 0 b c B H L Y P 8.{ r 9 ' L P : h ",
"Y - L / B N !  .e D 5.Y 7 n k U / v T o.A P r I Z P 7.p.! P v T ",
": t @.P L p W w w P B l l B j Z n r o.P f A 9 j f e a y O p 7 b ",
"v A j v T / D B ] >.l / Q v A ;...A I h : h e v B n R ( Y C z Y ",
"P P A I I 9 F R B P l b f f L / D K { v t | $.L j n I I h N c v ",
"Y B A I V 2 ! w.w.$.B v Z L :.r.( ( m h / p B T P -.y.O.L T L  .",
"K b T A 9 n w.` ` `   A A 5.+.p # 8 G F z o / Y t b / e f = h L ",
"Y h 7 8 A B w.` ` `   B v B # < P Z 9 h B Y :.i e h >.L { j A J ",
"v 8 v ' w.w.` ; ; `   v h B r :.@.f j P > r P $.$.L 0.I 9 * P | ",
"T A O.w.` ` ;     w.w.w.w.w.w.w.w.w.w.w.w.w.w.w.w.w.w.g   F ;.A ",
"t 7 9 ; ` ` ;     w.` ` ` ` ` ` ` S ` ` ` ` ` ` ` ` ` ;   8 ] n ",
"c M n   ; ; ` w.w.` ; ; ; ; ; ; ; ; ; w.` . w.` . w.` ;   6 >.w ",
"/ t A       ; ` ` ;                   w.`   ; ;   w.` ;   O _ K ",
"B > T 8 B   ; ` ` ;   n p | ^ F 9.y.  w.`         w.` ;   z K z ",
"h f ;.f P 5.  ; ;     ' | Y U ) 6./                       < T B ",
"Z P J v I 5.        0.-.7 @ U m s J + b     T T         P B &.n ",
"n 8 - v { u.K U M P 5.Y # D t.U ! $.w { R 6.A ] F i T  .B h ] S ",
"R l  .T R v * M t Z P L 9 / ( c { V 8 U Z R h <.B n o.( 1 s ! L ",
"7 p 0.T T A k b 6 M P B n +.F d o.v B l n P q J Z h T h h U c F ",
"/ <.P e V P 9 v <.<.U n | +.> n L c 7 e U c Y Y q X h j T R R P ",
" .T B B L P P O.9.v c { J p - -.! F h v h L $.7 7 9 ' } L N Y A ",
"Z 8 8 L Z P A j j $ P } e B T 6.i h f 9 T -.@.8 P A 1.@.e U B L ",
"'  .T P j , v n n r A P ( $.A P 5 e c P { L / P T A ' o.n U K @.",
"A Y A P P 9 T B r Z A ' O.v r n B L Y T ' P +.L * P 9.{ h L :.0 ",
"f f B 2 8 9 &.L j A v M ' r f v J 2 / ..R A F Q 4  .j > Z A A e ",
"R n v 8 ' Z T e j R B P +.A r n e.| a.&.T b ~ x u -.h j k k 9 n ",
">.L n V 1.h Y L n { A B 6.-.v T o.j Y h @ a E N T q.' M v P f R "
};
