/* XPM */
static char *_6edac5977874a57f7f56f8b465c05ebGiClwPGIGgxYyOAL[] = {
/* columns rows colors chars-per-pixel */
"32 32 118 2 ",
"   c black",
".  c gray19",
"X  c #7B5B28",
"o  c #505050",
"O  c gray44",
"+  c #805F2A",
"@  c #805F2C",
"#  c #8D6926",
"$  c #84662D",
"%  c #87682D",
"&  c #98742A",
"*  c #9A762E",
"=  c #937237",
"-  c #947335",
";  c #9A7732",
":  c #9B7832",
">  c #9F7C34",
",  c #92743E",
"<  c #97793C",
"1  c #997839",
"2  c #9F7D39",
"3  c #9A7A3D",
"4  c #9C7C3C",
"5  c #A07D35",
"6  c #A17F3B",
"7  c #A17F3F",
"8  c #8D7243",
"9  c #907544",
"0  c #967B4A",
"q  c #A28035",
"w  c #A1803B",
"e  c #A5833B",
"r  c #A2823F",
"t  c #A4833E",
"y  c #A7853E",
"u  c #A8873F",
"i  c #AA883D",
"p  c #9F8347",
"a  c #9C834C",
"s  c #A48241",
"d  c #A68543",
"f  c #A08247",
"g  c #A78746",
"h  c #A88640",
"j  c #AB8841",
"k  c #AC8B42",
"l  c #AF8D43",
"z  c #AA8844",
"x  c #AC8B45",
"c  c #AA8C47",
"v  c #AD8C45",
"b  c #A68749",
"n  c #AA8B49",
"m  c #AE8D48",
"M  c #AF8F4C",
"N  c #B08F46",
"B  c #B19046",
"V  c #B2914B",
"C  c #B5954B",
"Z  c #B2924F",
"A  c #B5954E",
"S  c #B9974D",
"D  c #A98B55",
"F  c #AF9152",
"G  c #AF9257",
"H  c #AF9258",
"J  c #A8905E",
"K  c #AD925D",
"L  c #B39350",
"P  c #B69753",
"I  c #B29455",
"U  c #B79854",
"Y  c #B99952",
"T  c #B99954",
"R  c #BB9C57",
"E  c #BF9F56",
"W  c #B5985A",
"Q  c #B4995F",
"!  c #B89A5B",
"~  c #BB9C58",
"^  c #BD9E59",
"/  c #BB9D5E",
"(  c #BC9E5E",
")  c #BFA15F",
"_  c #AC9464",
"`  c #BB9D60",
"'  c #BDA166",
"]  c #BCA36F",
"[  c #BCA67C",
"{  c #C0A159",
"}  c #C0A15D",
"|  c #C3A45E",
" . c #C4A55F",
".. c #C3A662",
"X. c #C4A662",
"o. c #C0A264",
"O. c #C2A564",
"+. c #C7A961",
"@. c #C6A967",
"#. c #C9AB67",
"$. c #C2A66A",
"%. c #C3A869",
"&. c #C5A96E",
"*. c #C8AB6B",
"=. c #CDAF6A",
"-. c #C9AE6E",
";. c #CCB06D",
":. c #C7AD72",
">. c #C6AC74",
",. c #CAAE70",
"<. c #CCB172",
"1. c #CAB074",
"2. c #C9B078",
"3. c #D1B474",
"4. c #D7BB7B",
"5. c #909090",
"6. c #D9C291",
"7. c #E3CC94",
/* pixels */
"P C E =.& A k q ; 2 +.| T Y : k z W X % 9 ` 6.f + = 3 G < ] g # ",
"Y +. .3.* ! L ) ` &.3.#.T X.m R c z s U <.;.  5 m ..Z T z / x P ",
"M z F                             1.(                       E u ",
";                     .                                     E r ",
"r                 o . . o . o o o o . o o o o o . o o o     ; $ ",
":.  5.5.O   O o     . . o o o o o . . o o . o o . . o o       r ",
"!   5.5.O O O o o         . . . . . . . . . . . . . . . .   j ^ ",
"  5.5.5.5.O O o o             o o o o o o o o . o o o o o     g ",
"  5.5.5.5.O o o o O O O           o o o o o o . o o o o o     Q ",
"    5.5.5.O O o o 5.O O O O o o       . . . o . . . . . . .     ",
"Q   5.5.5.5.O o o 5.5.O O o o o                   o o o . .     ",
"H   5.5.5.O O o o 5.O O O o o o O O O O O o       . . . . .     ",
"Q   5.5.5.O O O o 5.O O O O o o 5.O O O o o o       . . .       ",
"d   5.5.5.5.O O o O O O O O o o O O O O O o o         . .     o.",
"(   5.5.5.5.O O o 5.O O O O o o O O O O o o o           .   ;.A ",
"7   5.5.5.5.O o o 5.5.O O o o o 5.O O O o o o o O O o   .     k ",
"    5.5.5.O O o o 5.5.O O o o o 5.O O o o o o O o O o o       1 ",
"  6 5.5.5.5.O o o 5.5.O O o o o O O O O o o o O O O o o     [ K ",
"v   5.5.5.5.O o o 5.5.O O O o o O O O O o o o O O o o o     J a ",
"e   5.5.5.O O o o 5.5.O 5.O o o O O O O O o o O O O o o       m ",
"V   5.5.5.O O o o 5.5.O O o o o O 5.O O o o o O O O o o o     l ",
"x   5.5.5.5.O o o O 5.O O O o o 5.O O O o o o O O O o o o o   S ",
") p 5.5.5.5.O o o O 5.O O o o o O O O O O o o O O O o o o o   L ",
"-   5.5.5.O O o o O O O O o o o O O O o o o o O O O o o o o   D ",
"' ,.5.5.5.5.O o o 5.O O O o o o 5.O O o o o o O O o o o o o   W ",
"O.  5.5.5.O o o o 5.O O O O o o 5.O O o o o o 5.O o o o o o   Z ",
"B   5.5.5.O O o o 5.O O O O o o O O O O o o o O O O o o o o   L ",
"{   5.5.5.O O o o 5.5.O O O o o O O O O o o o O O O o o o o   %.",
"Z     5.5.5.O o o O 5.O O O o o O O O O O o o O O o o o o o   , ",
"w w                                                         Z 4 ",
") k h       / 4 u       $.  5 z     7.*.        8 -.t u i i > k ",
">.L l N <.t ! I z ..Z m 2.-.d ~ @.y Q r @ 0 _ b / 4.} n h Y w ) "
};
