/* XPM */
static char *e764390f434a4cf2d20b0b2aefcfe0bduLLKfoN46vJKfXBg[] = {
/* columns rows colors chars-per-pixel */
"32 32 135 2 ",
"   c black",
".  c #200000",
"X  c #300C00",
"o  c gray19",
"O  c #402000",
"+  c #423012",
"@  c #543D18",
"#  c #603000",
"$  c #7C5D2C",
"%  c #7A5D32",
"&  c gray25",
"*  c #505050",
"=  c #7F5A48",
"-  c #606060",
";  c #804000",
":  c #805F2A",
">  c #856226",
",  c #8D6924",
"<  c #84662D",
"1  c #87682D",
"2  c #8E6B2A",
"3  c #926F27",
"4  c #916E2D",
"5  c #95722C",
"6  c #99752C",
"7  c #9A782E",
"8  c #876734",
"9  c #856832",
"0  c #8E6D32",
"q  c #856A3C",
"w  c #8D6E3A",
"e  c #8F7036",
"r  c #947233",
"t  c #997632",
"y  c #9D7A33",
"u  c #94753A",
"i  c #987738",
"p  c #97793B",
"a  c #9D7C3C",
"s  c #A17E35",
"d  c #A17F3B",
"f  c #826F4E",
"g  c #8D7243",
"h  c #917643",
"j  c #977A45",
"k  c #9B7D43",
"l  c #967D4B",
"z  c #9C7F49",
"x  c #9B6E58",
"c  c #B27E65",
"v  c #9D803F",
"b  c #A38035",
"n  c #A3823C",
"m  c #A8863D",
"M  c #AA883E",
"N  c #9E8144",
"B  c #9E824C",
"V  c #9F8658",
"C  c #A48443",
"Z  c #A88741",
"A  c #A78847",
"S  c #AB8A44",
"D  c #A4874A",
"F  c #A88749",
"G  c #A7894A",
"H  c #AC8D4A",
"J  c #B08F46",
"K  c #B08F4A",
"L  c #AF904C",
"P  c #B29147",
"I  c #B3934C",
"U  c #B9974D",
"Y  c #A58952",
"T  c #AA8D53",
"R  c #AB8F58",
"E  c #AD9154",
"W  c #AD925C",
"Q  c #B49552",
"!  c #B79954",
"~  c #BB9B55",
"^  c #B2965B",
"/  c #B6995C",
"(  c #BB9D5B",
")  c #BEA15E",
"_  c #808060",
"`  c #AD9363",
"'  c #B19660",
"]  c #B69C65",
"[  c #B99D61",
"{  c #B79E6E",
"}  c #BDA164",
"|  c #BEA46D",
" . c #BCA67C",
".. c #C1A35E",
"X. c #CF9275",
"o. c #C2A563",
"O. c #C5A763",
"+. c #C0A364",
"@. c #C0A467",
"#. c #C3A767",
"$. c #C7A961",
"%. c #C6A966",
"&. c #C9AB67",
"*. c #C3A569",
"=. c #C1A66E",
"-. c #C5A968",
";. c #C7AB6E",
":. c #C7AC6F",
">. c #C8AC6A",
",. c #CDAF6A",
"<. c #C8AD6E",
"1. c #CCB06E",
"2. c #C4AA70",
"3. c #C6AC71",
"4. c #C7AD72",
"5. c #C3AA74",
"6. c #C9AE72",
"7. c #CFB473",
"8. c #CAB074",
"9. c #CCB174",
"0. c #CEB377",
"q. c #CEB578",
"w. c #D0B372",
"e. c #D1B574",
"r. c #D0B778",
"t. c #D3BA7D",
"y. c #C5B181",
"u. c #D6BE85",
"i. c #E6A482",
"p. c #E6BE9E",
"a. c #DDC384",
"s. c #D9C28D",
"d. c #D7C394",
"f. c #D9C291",
"g. c #DECD9A",
/* pixels */
"! I ~ ,.6 I S b t a $...! ! t S S ! $ 1 h [ f.C : r a E p | C , ",
"! $...e.7 / Q ) [ ;.e.&.! O.H ~ H S C ! 0.1.-.s H o.I ! S / S ! ",
"H S E R S ! [ :.a p *.H Z E a D B 8.( ( ! ( I m E E ! 0./ ~ ~ m ",
"t Z G Y ;.J Q d 5 n -.a 4 a Z @.E ) ^ T k B > t E v y C w ! ~ n ",
"n ~ N ] ! a C y ..Z ( n } 7.>.<.( } E w ] ] K O.( Z I O.+.0.t < ",
"4...a 2.C i S *.@.q 5.} I P         G R Q / ! w.o.s y ..I ! 5 n ",
"/ 4 Q } H D [ @.a Y 0./ r   + @ @ +   %.I ! s ~ I ! q.g.[ ! Z ( ",
"5 d -.! Q k ' p p ! H N N   @ = = +   ! b I y m n a l f % k r C ",
"Z I n S ( } Y H ..4.N } ]   c p.i.c   n 5 n a Z H S ) | / L B / ",
"! I I ~ ~ y T ) H ! N C n   = p.i.=   Z d +.;.Q m S ~ ~ n G C Z ",
"/ H I ~ K 0 [ C [ ;.H Z I Q   i.c   D n } k H ( ! ,.a.&.Q / Q @.",
"W C ( I y S E p } G t I I   X c X.X   T B $ } / d A } a n 3 n Q ",
"/ n r t I H n I / C d H   O X x O O X   H / 2.h a n 4.Q o.m I E ",
"Z t S ..0./ o.I z ^ +.  # O # . # # O O   s ! =.=.Q t.~ y 2 ! +.",
"( I &.-.Q H H G E y.Y   # # ; _ # ; # O   I O.[ q q ! L 4 T 1.I ",
"d r y r I @.Q N z `   i.O # ; . ; # # O c   ! G j T e.1.Z t ..S ",
"C G S -.<./ ! [ ;.4.  i.O # ; _ ; # ; O i.  / Z ( I ~ ! I e 4.i ",
"} d I ! s 7 n @.>.  i.c O ; # . ; # # O c i.  H -.a I m C %  .W ",
"H 6 ( t H ) r.) r   i.    ; # _ ; # ;     i.  C ! H 5 a d.B W B ",
"n b 1.n ! 0.[ i 5   i.  +.  O * # O   !   i.  ! ~ H n 0.y.8 / H ",
"I ! E Z ~ 0.T T   c i.  r   - * * o   C   i.c   Q k } e.! H >.S ",
"S t 4 Z o.s.W ^   c c     - * o o * o     c c   T h ( @.H n ..U ",
") N @./ ) Z 2 F d     Q   - &     & o   I     4.H S %.| 9 z / Q ",
"r k t.( ( I M C e G ! H   - &     & o   S ! i       ( n n / C T ",
"} 4.! a K ! y Z 6.4.^ S   -         *   ^             m ( ) ) ! ",
"@.( H G Q ! ! &.e.Z C   - *         * o               O.Q G / I ",
"P t t Q I ! I n m , !   - *         * o               -.a ^ G Q ",
"..@.( ! m 7 Z S S s I   - *         * o             ..%.S ^ W @.",
"I ! I ! ! y ( H s I I   & o         & o           ! e.o.n Q 2.u ",
"n n H 0 t y >.Q m I   i.X.c         c i.c       w @.n 6 I I I a ",
") S Z t ..I / a m   i.i.c       u.    i.i.c { V g <.n m M M y S ",
"4.Q S J 0.n / Q S o.        Z ( %.n /       ` D / t...G Z ! n ) "
};
