/* XPM */
static char *_b5e83fa94bb4609cc1eec38e2cccefdqeSm6H6VKq7FjR8v[] = {
/* columns rows colors chars-per-pixel */
"32 32 109 2 ",
"   c black",
".  c #200000",
"X  c #300C00",
"o  c gray19",
"O  c #402000",
"+  c #423012",
"@  c #543D18",
"#  c #603000",
"$  c #7B5B28",
"%  c gray25",
"&  c #505050",
"*  c #7F5A48",
"=  c #606060",
"-  c gray44",
";  c #804000",
":  c #805F2A",
">  c #8D6926",
",  c #84662D",
"<  c #947336",
"1  c #9B7832",
"2  c #92743E",
"3  c #9B7A3A",
"4  c #A17F3F",
"5  c #9B6E58",
"6  c #B27E65",
"7  c #A28035",
"8  c #A4833D",
"9  c #A58545",
"0  c #AC8B43",
"q  c #A68749",
"w  c #AD8D48",
"e  c #B4934D",
"r  c #A98B55",
"t  c #AF9258",
"y  c #B39553",
"u  c #BB9C55",
"i  c #B5995C",
"p  c #B99B5A",
"a  c #BEA05D",
"s  c #808060",
"d  c #AC9464",
"f  c #B99D60",
"g  c #BDA166",
"h  c #BCA36F",
"j  c #C0A15B",
"k  c #CF9275",
"l  c #C3A662",
"z  c #C6A965",
"x  c #C3A869",
"c  c #C6AC74",
"v  c #CAAE70",
"b  c #D7BB7B",
"n  c #778384",
"m  c #7A8687",
"M  c #758789",
"N  c #798789",
"B  c #768A8C",
"V  c #7B8B8C",
"C  c #758E91",
"Z  c #7D8E91",
"A  c #779092",
"S  c #7D9294",
"D  c #7F9598",
"F  c #818D8E",
"G  c #818F91",
"H  c #839395",
"J  c #839698",
"K  c #899799",
"L  c #859A9D",
"P  c #8B9C9E",
"I  c #909090",
"U  c #E6A482",
"Y  c #E6BE9E",
"T  c #D9C291",
"R  c #A9BFC2",
"E  c #ADC3C5",
"W  c #AFC9CC",
"Q  c #B3C4C5",
"!  c #B2C7CA",
"~  c #B5CACC",
"^  c #BBCCCE",
"/  c #B4CED0",
"(  c #BCCED1",
")  c #B6D1D3",
"_  c #BDD2D4",
"`  c #BCD6D9",
"'  c #BCD8D9",
"]  c #BFD9DC",
"[  c #C0CACB",
"{  c #C2CCCE",
"}  c #C2CECF",
"|  c #C1CFD1",
" . c #C0D1D3",
".. c #C5D1D3",
"X. c #C3D3D5",
"o. c #C4D2D4",
"O. c #C1D5D6",
"+. c #C4D4D6",
"@. c #C2D6D8",
"#. c #C5D6D8",
"$. c #C8D6D8",
"%. c #C1D8DA",
"&. c #C5D8D9",
"*. c #C3DADD",
"=. c #CCD9DB",
"-. c #C9D9DC",
";. c #D1DBDC",
":. c #D4DEDF",
">. c #CEDEE0",
/* pixels */
"y e u E V e 0 7 1 3 z +.Z u 1 0 q i $ &.H f T 9 : < 3 ;.C h 9 > ",
"_ ! ` _ _ X._ ~ _ ~ ~ ^ X.&.( ^ ( ` #.^ _ ~ _ ( :.#.~ ^ ^ ~ ^ @.",
"J Z H ) F G m V H V V _ G V G H H H B #.H S N Z M P H ` G S M J ",
"1     ^ V             ^ N             ^ J             ( V   u 8 ",
"8     ! F         & o _ M o & & & & o _ J & & & o & &  .J   1 , ",
"_ _ %.! ~ ( _ X.` ~ #.=.E ~         X...-.( ( ~ ^ _ _ ^ ` ~ ^ ( ",
"H H V _ Z J H Z J J V W S   + @ @ +   X.V J Z B H H M  .S V J J ",
"  I I _ N - - & &     _ H   @ * * +   E V & & o & & & ) V     9 ",
"  I I *.V - & & & - - _ Z   6 Y U 6   ~ B & & o & & & ` H     i ",
"&._ ~ O.^ ) o.^ @.~ | @.~   * Y U *   ^ ~ Q O.@.-.R ( ~ ` ] @._ ",
"V D G ` H V G J P H Z ) H Z   U 6   P X.D M Z V V V G _ S Z Z V ",
"t   I X.N - - & & I - ^ H   X 6 k X   ' H &       o o } L o     ",
"i   I ( H - - - & I - |   O X 5 O O X   S & &       o ( S       ",
">. ._ ! !  .^ +./ _ (   # O # . # # O O    .( / _ ! Q [ / ( E ~ ",
"V G F  .A H Z H N V Z   # # ; s # ; # O   N H n G P B ( Z S M H ",
"4   I $.S I - & & I   U O # ; . ; # # O 6   & & - - & ` J     0 ",
"    I _ Z - - & & I   U O # ; s ; # ; O U   & - & - & _ G     3 ",
"#.^ Q ..&.( _ _ _   U 6 O ; # . ; # # O 6 U   ) ` O.! _ ( ` ( O.",
"H V H ^ S G H G Z   U     ; # s ; # ;     U   V J V S &.N C F V ",
"8   I W V - - & &   U   H   O & # O   _   U   - - - & ! H     w ",
"e   I } S - - &   6 U   K   = & & o   _   U 6   - - & ! M     0 ",
"| X.O._ ` ` ^ O.  6 6     = & o o & o     6 6   | &._ &.) (  ._ ",
"N N M %.J Z N S V     (   = %     % o   H     B J V K ) S S V D ",
"<   I ( G - - & & - - /   = %     % o   Z & &       & } F &   r ",
"g v I ~ V I - & & I - !   =         &   V             ~ S &   i ",
"#.&.+.^ _ O.) O.|  .^   = &         & o               ~ _ ^ _ o.",
"Z N B ! Z V M P N H D   = &         & o               ( J H H G ",
"j   I ) V - - & & I I   = &         & o             & _ H &   x ",
"e     ~ J I - & & - I   % o         % o           & & _ Z &   2 ",
"( ^ ( _ ~ *.^ ~ _ )   U k 6         6 U 6       ^ X.! _  ._ _ ! ",
"V S N o.G Z H P L   U U 6       L     U U 6 V V H N L _ H S H S ",
"c y 0 Q V 8 p y q l         9 p z 8 i       d q p b j O.F u 8 a "
};
