/* XPM */
static char *_edd73cfa8624cba90745b8c415ae0fbAvyJM27oN0aiAAUt[] = {
/* columns rows colors chars-per-pixel */
"32 32 6 1 ",
"  c None",
". c black",
"X c gray19",
"o c #505050",
"O c gray44",
"+ c #909090",
/* pixels */
"                                ",
"                      .         ",
"   ..............  ...........  ",
" ..........X..................  ",
" ........oXXoXooooXoooooXooo..  ",
" .++O.Oo..XXoooooXXooXooXXoo... ",
" .++OOOoo....XXXXXXXXXXXXXXXX.  ",
".++++OOoo......ooooooooXooooo.. ",
".++++OoooOOO.....ooooooXooooo.. ",
"..+++OOoo+OOOOoo...XXXoXXXXXXX..",
" .++++Ooo++OOooo.........oooXX..",
" .+++OOoo+OOOoooOOOOOo...XXXXX..",
" .+++OOOo+OOOOoo+OOOooo...XXX...",
" .++++OOoOOOOOooOOOOOoo....XX.. ",
" .++++OOo+OOOOooOOOOooo.....X.  ",
" .++++Ooo++OOooo+OOOooooOOo.X.. ",
"..+++OOoo++OOooo+OOooooOoOoo... ",
". ++++Ooo++OOoooOOOOoooOOOoo..  ",
" .++++Ooo++OOOooOOOOoooOOooo..  ",
" .+++OOoo++O+OooOOOOOooOOOoo... ",
" .+++OOoo++OOoooO+OOoooOOOooo.. ",
" .++++OooO+OOOoo+OOOoooOOOoooo. ",
"  ++++OooO+OOoooOOOOOooOOOoooo. ",
" .+++OOooOOOOoooOOOooooOOOoooo. ",
"  ++++Ooo+OOOooo+OOooooOOooooo. ",
" .+++Oooo+OOOOoo+OOoooo+Oooooo. ",
" .+++OOoo+OOOOooOOOOoooOOOoooo. ",
" .+++OOoo++OOOooOOOOoooOOOoooo. ",
" ..+++OooO+OOOooOOOOOooOOooooo. ",
"  ............................  ",
"   ...   ... .  ..  ....        ",
"                                "
};
